<mxfile host="app.diagrams.net" modified="2022-04-28T16:32:16.933Z" agent="5.0 (Macintosh; Intel Mac OS X 10_15_7) AppleWebKit/605.1.15 (KHTML, like Gecko) Version/15.1 Safari/605.1.15" etag="iz8KOx79R8WWh8vKm-lI" version="17.4.6" type="github">
  <diagram id="C5RBs43oDa-KdzZeNtuy" name="Page-1">
    <mxGraphModel dx="1458" dy="535" grid="1" gridSize="10" guides="1" tooltips="1" connect="1" arrows="1" fold="1" page="1" pageScale="1" pageWidth="827" pageHeight="1169" math="0" shadow="0">
      <root>
        <mxCell id="WIyWlLk6GJQsqaUBKTNV-0" />
        <mxCell id="WIyWlLk6GJQsqaUBKTNV-1" parent="WIyWlLk6GJQsqaUBKTNV-0" />
        <mxCell id="2ZH3jL3VDPn1enztOVtT-4" style="edgeStyle=orthogonalEdgeStyle;rounded=0;orthogonalLoop=1;jettySize=auto;html=1;exitX=0.5;exitY=1;exitDx=0;exitDy=0;" edge="1" parent="WIyWlLk6GJQsqaUBKTNV-1">
          <mxGeometry relative="1" as="geometry">
            <mxPoint x="120" y="530" as="sourcePoint" />
            <mxPoint x="120" y="530" as="targetPoint" />
          </mxGeometry>
        </mxCell>
        <mxCell id="2ZH3jL3VDPn1enztOVtT-15" value="" style="swimlane;startSize=20;horizontal=1;childLayout=treeLayout;horizontalTree=0;resizable=0;containerType=tree;" vertex="1" parent="WIyWlLk6GJQsqaUBKTNV-1">
          <mxGeometry x="-60" y="380" width="840" height="290" as="geometry" />
        </mxCell>
        <mxCell id="2ZH3jL3VDPn1enztOVtT-16" value="以太坊交易追踪平台" style="whiteSpace=wrap;html=1;fillColor=#ffe6cc;strokeColor=#d79b00;" vertex="1" parent="2ZH3jL3VDPn1enztOVtT-15">
          <mxGeometry x="347.5" y="40" width="145" height="50" as="geometry" />
        </mxCell>
        <mxCell id="2ZH3jL3VDPn1enztOVtT-17" value="以太坊信息查询" style="whiteSpace=wrap;html=1;fillColor=#fff2cc;strokeColor=#d6b656;" vertex="1" parent="2ZH3jL3VDPn1enztOVtT-15">
          <mxGeometry x="90" y="140" width="100" height="40" as="geometry" />
        </mxCell>
        <mxCell id="2ZH3jL3VDPn1enztOVtT-18" value="" style="edgeStyle=elbowEdgeStyle;elbow=vertical;html=1;rounded=0;" edge="1" parent="2ZH3jL3VDPn1enztOVtT-15" source="2ZH3jL3VDPn1enztOVtT-16" target="2ZH3jL3VDPn1enztOVtT-17">
          <mxGeometry relative="1" as="geometry" />
        </mxCell>
        <mxCell id="2ZH3jL3VDPn1enztOVtT-19" value="数据可视化" style="whiteSpace=wrap;html=1;fillColor=#fff2cc;strokeColor=#d6b656;" vertex="1" parent="2ZH3jL3VDPn1enztOVtT-15">
          <mxGeometry x="370" y="140" width="100" height="40" as="geometry" />
        </mxCell>
        <mxCell id="2ZH3jL3VDPn1enztOVtT-20" value="" style="edgeStyle=elbowEdgeStyle;elbow=vertical;html=1;rounded=0;" edge="1" parent="2ZH3jL3VDPn1enztOVtT-15" source="2ZH3jL3VDPn1enztOVtT-16" target="2ZH3jL3VDPn1enztOVtT-19">
          <mxGeometry relative="1" as="geometry" />
        </mxCell>
        <mxCell id="2ZH3jL3VDPn1enztOVtT-21" value="" style="edgeStyle=elbowEdgeStyle;elbow=vertical;html=1;rounded=0;" edge="1" target="2ZH3jL3VDPn1enztOVtT-22" source="2ZH3jL3VDPn1enztOVtT-17" parent="2ZH3jL3VDPn1enztOVtT-15">
          <mxGeometry relative="1" as="geometry">
            <mxPoint x="-362.5" y="620" as="sourcePoint" />
          </mxGeometry>
        </mxCell>
        <mxCell id="2ZH3jL3VDPn1enztOVtT-22" value="区块信息查询" style="whiteSpace=wrap;html=1;fillColor=#f5f5f5;fontColor=#333333;strokeColor=#666666;" vertex="1" parent="2ZH3jL3VDPn1enztOVtT-15">
          <mxGeometry x="20" y="230" width="100" height="40" as="geometry" />
        </mxCell>
        <mxCell id="2ZH3jL3VDPn1enztOVtT-23" value="" style="edgeStyle=elbowEdgeStyle;elbow=vertical;html=1;rounded=0;" edge="1" target="2ZH3jL3VDPn1enztOVtT-24" source="2ZH3jL3VDPn1enztOVtT-16" parent="2ZH3jL3VDPn1enztOVtT-15">
          <mxGeometry relative="1" as="geometry">
            <mxPoint x="-362.5" y="620" as="sourcePoint" />
          </mxGeometry>
        </mxCell>
        <mxCell id="2ZH3jL3VDPn1enztOVtT-24" value="交易路径追踪" style="whiteSpace=wrap;html=1;fillColor=#fff2cc;strokeColor=#d6b656;" vertex="1" parent="2ZH3jL3VDPn1enztOVtT-15">
          <mxGeometry x="650" y="140" width="100" height="40" as="geometry" />
        </mxCell>
        <mxCell id="2ZH3jL3VDPn1enztOVtT-25" value="" style="edgeStyle=elbowEdgeStyle;elbow=vertical;html=1;rounded=0;" edge="1" target="2ZH3jL3VDPn1enztOVtT-26" source="2ZH3jL3VDPn1enztOVtT-19" parent="2ZH3jL3VDPn1enztOVtT-15">
          <mxGeometry relative="1" as="geometry">
            <mxPoint x="-222.5" y="620" as="sourcePoint" />
          </mxGeometry>
        </mxCell>
        <mxCell id="2ZH3jL3VDPn1enztOVtT-26" value="路径可视化" style="whiteSpace=wrap;html=1;fillColor=#f5f5f5;fontColor=#333333;strokeColor=#666666;" vertex="1" parent="2ZH3jL3VDPn1enztOVtT-15">
          <mxGeometry x="300" y="230" width="100" height="40" as="geometry" />
        </mxCell>
        <mxCell id="2ZH3jL3VDPn1enztOVtT-27" value="" style="edgeStyle=elbowEdgeStyle;elbow=vertical;html=1;rounded=0;" edge="1" target="2ZH3jL3VDPn1enztOVtT-28" source="2ZH3jL3VDPn1enztOVtT-24" parent="2ZH3jL3VDPn1enztOVtT-15">
          <mxGeometry relative="1" as="geometry">
            <mxPoint x="-222.5" y="620" as="sourcePoint" />
          </mxGeometry>
        </mxCell>
        <mxCell id="2ZH3jL3VDPn1enztOVtT-28" value="向前追踪" style="whiteSpace=wrap;html=1;fillColor=#f5f5f5;fontColor=#333333;strokeColor=#666666;" vertex="1" parent="2ZH3jL3VDPn1enztOVtT-15">
          <mxGeometry x="580" y="230" width="100" height="40" as="geometry" />
        </mxCell>
        <mxCell id="2ZH3jL3VDPn1enztOVtT-29" value="" style="edgeStyle=elbowEdgeStyle;elbow=vertical;html=1;rounded=0;" edge="1" target="2ZH3jL3VDPn1enztOVtT-30" source="2ZH3jL3VDPn1enztOVtT-24" parent="2ZH3jL3VDPn1enztOVtT-15">
          <mxGeometry relative="1" as="geometry">
            <mxPoint x="-222.5" y="620" as="sourcePoint" />
          </mxGeometry>
        </mxCell>
        <mxCell id="2ZH3jL3VDPn1enztOVtT-30" value="向后追踪" style="whiteSpace=wrap;html=1;fillColor=#f5f5f5;fontColor=#333333;strokeColor=#666666;" vertex="1" parent="2ZH3jL3VDPn1enztOVtT-15">
          <mxGeometry x="720" y="230" width="100" height="40" as="geometry" />
        </mxCell>
        <mxCell id="2ZH3jL3VDPn1enztOVtT-31" value="" style="edgeStyle=elbowEdgeStyle;elbow=vertical;html=1;rounded=0;" edge="1" target="2ZH3jL3VDPn1enztOVtT-32" source="2ZH3jL3VDPn1enztOVtT-19" parent="2ZH3jL3VDPn1enztOVtT-15">
          <mxGeometry relative="1" as="geometry">
            <mxPoint x="-47.5" y="620" as="sourcePoint" />
          </mxGeometry>
        </mxCell>
        <mxCell id="2ZH3jL3VDPn1enztOVtT-32" value="交易数据统计可视化" style="whiteSpace=wrap;html=1;fillColor=#f5f5f5;fontColor=#333333;strokeColor=#666666;" vertex="1" parent="2ZH3jL3VDPn1enztOVtT-15">
          <mxGeometry x="440" y="230" width="100" height="40" as="geometry" />
        </mxCell>
        <mxCell id="2ZH3jL3VDPn1enztOVtT-33" value="" style="edgeStyle=elbowEdgeStyle;elbow=vertical;html=1;rounded=0;" edge="1" target="2ZH3jL3VDPn1enztOVtT-34" source="2ZH3jL3VDPn1enztOVtT-17" parent="2ZH3jL3VDPn1enztOVtT-15">
          <mxGeometry relative="1" as="geometry">
            <mxPoint x="197.5" y="620" as="sourcePoint" />
          </mxGeometry>
        </mxCell>
        <mxCell id="2ZH3jL3VDPn1enztOVtT-34" value="交易信息查询" style="whiteSpace=wrap;html=1;fillColor=#f5f5f5;fontColor=#333333;strokeColor=#666666;" vertex="1" parent="2ZH3jL3VDPn1enztOVtT-15">
          <mxGeometry x="160" y="230" width="100" height="40" as="geometry" />
        </mxCell>
      </root>
    </mxGraphModel>
  </diagram>
</mxfile>
